<?xml version="1.0" encoding="UTF-8" standalone="no"?>
<svg
   xmlns:dc="http://purl.org/dc/elements/1.1/"
   xmlns:cc="http://creativecommons.org/ns#"
   xmlns:rdf="http://www.w3.org/1999/02/22-rdf-syntax-ns#"
   xmlns:svg="http://www.w3.org/2000/svg"
   xmlns="http://www.w3.org/2000/svg"
   xmlns:sodipodi="http://sodipodi.sourceforge.net/DTD/sodipodi-0.dtd"
   xmlns:inkscape="http://www.inkscape.org/namespaces/inkscape"
   viewBox="0 0 1407.25 1407.25"
   version="1.1"
   id="svg123"
   sodipodi:docname="pai_sho_board_remix_20200509_3.svg"
   inkscape:version="0.92.2 5c3e80d, 2017-08-06">
  <metadata
     id="metadata127">
    <rdf:RDF>
      <cc:Work
         rdf:about="">
        <dc:format>image/svg+xml</dc:format>
        <dc:type
           rdf:resource="http://purl.org/dc/dcmitype/StillImage" />
        <dc:title>Pai Sho Board MK 2</dc:title>
      </cc:Work>
    </rdf:RDF>
  </metadata>
  <sodipodi:namedview
     pagecolor="#ffffff"
     bordercolor="#666666"
     borderopacity="1"
     objecttolerance="10"
     gridtolerance="10"
     guidetolerance="10"
     inkscape:pageopacity="0"
     inkscape:pageshadow="2"
     inkscape:window-width="1280"
     inkscape:window-height="755"
     id="namedview125"
     showgrid="false"
     inkscape:zoom="0.33540593"
     inkscape:cx="576.41887"
     inkscape:cy="731.59343"
     inkscape:window-x="0"
     inkscape:window-y="1"
     inkscape:window-maximized="1"
     inkscape:current-layer="svg123"
     inkscape:snap-intersection-paths="true"
     inkscape:snap-object-midpoints="true" />
  <defs
     id="defs7">
    <style
       id="style2">.cls-1,.cls-9{fill:none;}.cls-2,.cls-4,.cls-7{fill:#7c2521;}.cls-2,.cls-3,.cls-4,.cls-9{stroke:#000;stroke-miterlimit:10;}.cls-2{stroke-width:3.25px;}.cls-3,.cls-6{fill:#deb887;}.cls-3,.cls-4,.cls-9{stroke-width:3px;}.cls-5{fill:#fff;}.cls-8{clip-path:url(#clip-path);}</style>
    <clipPath
       id="clip-path"
       transform="translate(19.63 19.63)">
      <polygon
         class="cls-1"
         points="972 36 396 36 36 396 36 972 396 1332 972 1332 1332 972 1332 396 972 36"
         id="polygon4" />
    </clipPath>
    <clipPath
       clipPathUnits="userSpaceOnUse"
       id="clipPath4082">
      <circle
         style="color:#000000;display:inline;overflow:visible;visibility:visible;fill:#ffeeaa;fill-opacity:1;fill-rule:nonzero;stroke:#212f3a;stroke-width:3.00533104;stroke-linecap:butt;stroke-linejoin:round;stroke-miterlimit:4;stroke-dasharray:none;stroke-dashoffset:0;stroke-opacity:1;marker:none;enable-background:accumulate"
         id="path4084"
         transform="matrix(0.99822695,0,0,0.99822531,2.8723403,-561.89425)"
         cx="808.56128"
         cy="805.68384"
         r="811.43872" />
    </clipPath>
  </defs>
  <title
     id="title9">Pai Sho Board MK 2</title>
  <g
     id="g1064">
    <path
       id="path1130"
       d="m 431.18164,25.839844 a 69.516974,69.516974 0 0 0 -6.93945,0.347656 69.516974,69.516974 0 0 0 -6.8711,1.037109 69.516974,69.516974 0 0 0 -6.73437,1.71875 69.516974,69.516974 0 0 0 -6.52539,2.384766 69.516974,69.516974 0 0 0 -6.25781,3.023437 69.516974,69.516974 0 0 0 -5.92383,3.63086 69.516974,69.516974 0 0 0 -5.53125,4.207031 69.516974,69.516974 0 0 0 -4.3711,4.011719 L 46.201172,382.02734 a 69.516974,69.516974 0 0 0 -4.660156,5.15039 69.516974,69.516974 0 0 0 -4.125,5.59375 69.516974,69.516974 0 0 0 -3.544922,5.97657 69.516974,69.516974 0 0 0 -2.931641,6.30078 69.516974,69.516974 0 0 0 -2.289062,6.5625 69.516974,69.516974 0 0 0 -1.619141,6.75586 69.516974,69.516974 0 0 0 -0.9375,6.88476 69.516974,69.516974 0 0 0 -0.253906,5.92969 v 544.89648 a 69.516974,69.516974 0 0 0 0.347656,6.93946 69.516974,69.516974 0 0 0 1.037109,6.87109 69.516974,69.516974 0 0 0 1.71875,6.73438 69.516974,69.516974 0 0 0 2.384766,6.52535 69.516974,69.516974 0 0 0 3.023437,6.2578 69.516974,69.516974 0 0 0 3.63086,5.9239 69.516974,69.516974 0 0 0 4.207031,5.5312 69.516974,69.516974 0 0 0 4.011719,4.3711 l 335.826168,335.8242 a 69.516974,69.516974 0 0 0 5.15235,4.6641 69.516974,69.516974 0 0 0 5.59179,4.125 69.516974,69.516974 0 0 0 5.97852,3.543 69.516974,69.516974 0 0 0 6.29883,2.9336 69.516974,69.516974 0 0 0 6.5625,2.2871 69.516974,69.516974 0 0 0 6.75586,1.6191 69.516974,69.516974 0 0 0 6.88476,0.9375 69.516974,69.516974 0 0 0 5.92969,0.2539 h 544.89648 a 69.516974,69.516974 0 0 0 6.93946,-0.3476 69.516974,69.516974 0 0 0 6.87109,-1.0371 69.516974,69.516974 0 0 0 6.73438,-1.7188 69.516974,69.516974 0 0 0 6.52535,-2.3848 69.516974,69.516974 0 0 0 6.2578,-3.0214 69.516974,69.516974 0 0 0 5.9239,-3.6329 69.516974,69.516974 0 0 0 5.5312,-4.205 69.516974,69.516974 0 0 0 4.3711,-4.0157 l 335.8242,-335.8242 a 69.516974,69.516974 0 0 0 4.6641,-5.1543 69.516974,69.516974 0 0 0 4.125,-5.5898 69.516974,69.516974 0 0 0 3.543,-5.9785 69.516974,69.516974 0 0 0 2.9336,-6.2989 69.516974,69.516974 0 0 0 2.2871,-6.56246 69.516974,69.516974 0 0 0 1.6191,-6.75586 69.516974,69.516974 0 0 0 0.9375,-6.88477 69.516974,69.516974 0 0 0 0.2539,-5.92969 V 431.18164 a 69.516974,69.516974 0 0 0 -0.3476,-6.93945 69.516974,69.516974 0 0 0 -1.0371,-6.8711 69.516974,69.516974 0 0 0 -1.7188,-6.73437 69.516974,69.516974 0 0 0 -2.3848,-6.52539 69.516974,69.516974 0 0 0 -3.0214,-6.25781 69.516974,69.516974 0 0 0 -3.6329,-5.92383 69.516974,69.516974 0 0 0 -4.205,-5.53125 69.516974,69.516974 0 0 0 -4.0157,-4.3711 L 1025.2324,46.201172 a 69.516974,69.516974 0 0 0 -5.1504,-4.660156 69.516974,69.516974 0 0 0 -5.5937,-4.125 69.516974,69.516974 0 0 0 -5.9766,-3.544922 69.516974,69.516974 0 0 0 -6.3008,-2.931641 69.516974,69.516974 0 0 0 -6.56246,-2.289062 69.516974,69.516974 0 0 0 -6.75586,-1.619141 69.516974,69.516974 0 0 0 -6.88477,-0.9375 69.516974,69.516974 0 0 0 -5.92969,-0.253906 z"
       style="fill:#deb887;stroke:#000000;stroke-width:3.25896502px;stroke-miterlimit:10"
       inkscape:connector-curvature="0" />
    <g
       id="g1483">
      <path
         style="opacity:1;fill:#7c2521;fill-opacity:1;fill-rule:nonzero;stroke:#000000;stroke-width:2.49300003;stroke-linejoin:round;stroke-miterlimit:4;stroke-dasharray:none;stroke-dashoffset:0;stroke-opacity:1"
         d="m 703.63093,1290.3416 a 39.505669,39.505669 0 0 0 -39.50586,39.5059 v 38.5136 h 79.00977 v -38.5136 a 39.505669,39.505669 0 0 0 -39.50391,-39.5059 z"
         id="path1433"
         inkscape:connector-curvature="0" />
      <path
         inkscape:connector-curvature="0"
         id="path1441"
         d="M 116.91843,703.6309 A 39.505669,39.505669 0 0 0 77.412533,664.1251 h -38.5136 v 79.0097 h 38.5136 a 39.505669,39.505669 0 0 0 39.505897,-39.5039 z"
         style="opacity:1;fill:#7c2521;fill-opacity:1;fill-rule:nonzero;stroke:#000000;stroke-width:2.49300003;stroke-linejoin:round;stroke-miterlimit:4;stroke-dasharray:none;stroke-dashoffset:0;stroke-opacity:1" />
      <path
         style="opacity:1;fill:#7c2521;fill-opacity:1;fill-rule:nonzero;stroke:#000000;stroke-width:2.49300003;stroke-linejoin:round;stroke-miterlimit:4;stroke-dasharray:none;stroke-dashoffset:0;stroke-opacity:1"
         d="m 1290.3416,703.63088 a 39.505669,39.505669 0 0 1 39.5059,-39.5058 h 38.5136 v 79.0097 h -38.5136 a 39.505669,39.505669 0 0 1 -39.5059,-39.5039 z"
         id="path1438"
         inkscape:connector-curvature="0" />
      <path
         inkscape:connector-curvature="0"
         id="path1436"
         d="M 703.6309,116.91843 A 39.505669,39.505669 0 0 1 664.12504,77.412535 v -38.5136 h 79.00977 v 38.5136 A 39.505669,39.505669 0 0 1 703.6309,116.91843 Z"
         style="opacity:1;fill:#7c2521;fill-opacity:1;fill-rule:nonzero;stroke:#000000;stroke-width:2.49300003;stroke-linejoin:round;stroke-miterlimit:4;stroke-dasharray:none;stroke-dashoffset:0;stroke-opacity:1" />
    </g>
    <path
       d="m 703.62993,25.839708 v 52.137129 m 0,0 2e-5,1251.306263 M 1329.3513,350.31947 V 1056.9383 M 1251.136,347.4142 v 712.4314 M 1172.9209,269.1989 V 1138.061 M 1094.7057,190.98586 V 1216.274 M 234.339,269.1989 l 1e-5,868.8621 M 312.55417,190.98586 V 1216.2762 M 77.908683,350.31947 v 706.61883 m 78.215157,-784.83395 1e-5,75.30985 m 0,0 -1e-5,712.4314 m 0,0 v 75.3099 M 1016.4906,112.77063 V 1294.4892 M 938.2754,77.976837 l 4e-5,1251.306263 M 860.06025,77.976837 l 3e-5,1251.306263 M 781.8451,77.976837 l 2e-5,1251.306263 M 390.7693,112.77062 l 2e-5,1181.71878 m 78.21514,-1216.512563 2e-5,1251.306263 m 78.21514,-1251.306263 2e-5,1251.306263 m 78.21513,-1251.306263 3e-5,1251.306263 m 431.5236,0.068 H 350.32149 M 1216.2741,1094.7057 H 190.98591 M 1059.8457,1251.136 H 347.41419 m 790.64671,-78.2151 H 269.19885 m 790.64685,-1016.79704 -712.43151,-1e-5 m 790.64671,78.21515 -868.86206,1e-5 m 947.07526,78.21516 H 190.98367 M 1294.4894,1016.4906 H 112.77064 m 1216.51246,-78.2152 -1251.306319,4e-5 M 1329.2831,860.06025 77.976781,860.06028 M 1329.2831,781.8451 77.976781,781.84512 M 1294.4892,390.7693 l -1181.71865,2e-5 m 1216.51255,78.21514 -1251.306319,2e-5 m 1251.306319,78.21514 -1251.306319,2e-5 m 1251.306319,78.21513 -1251.306319,3e-5 m 1251.306319,78.21513 -1251.306319,2e-5 M 1381.4202,938.2754 h -52.1371 m 52.1371,-78.21514 -52.1371,-10e-6 m 52.1371,-78.21515 h -52.1371 m 52.1371,-312.86063 -52.1371,-10e-6 m 52.1371,78.21516 h -52.1371 m 52.1371,78.21515 h -52.1371 m 52.1371,78.21516 h -52.1371 M 703.62995,1329.2831 v 52.1371 m 234.64549,-52.1371 v 52.1371 m -78.21516,-52.1371 v 52.1371 m -78.21516,-52.1371 v 52.1371 m -312.86064,-52.1371 v 52.1371 m 78.21516,-52.1371 v 52.1371 m 78.21516,-52.1371 v 52.1371 M 190.98591,1094.7057 h -75.30974 m 118.66284,43.3553 v 75.3097 m 78.21516,2.9055 v 75.3098 m 34.86002,-40.45 h -75.30984 m -2.9055,-78.2151 h -75.30971 m 196.88018,121.5685 v 73.8775 M 112.77064,1016.4906 H 38.866975 M 77.976781,938.27544 H 25.839699 M 77.976781,860.06028 H 25.839699 M 77.976781,781.84512 H 25.839699 M 112.77055,390.76932 H 38.893036 m 39.083745,78.21516 H 25.839699 m 52.137082,78.21516 H 25.839699 M 77.976781,625.4148 H 25.839699 m 52.137082,78.21515 H 25.839699 M 234.339,193.88914 v 75.30976 m 78.21515,-153.52276 2e-5,75.30972 m 34.86002,-34.86201 h -75.30984 m -2.90551,78.21516 h -75.30971 m -2.90546,78.21516 H 115.674 m 275.09531,-273.687285 -1e-5,73.903735 m 78.21517,-86.930912 -10e-6,52.137129 M 1251.136,272.10435 v 75.30985 m -78.2151,-153.52506 v 75.30976 m -78.2152,-153.52276 v 75.30972 m 40.4499,-34.86201 -75.3099,1e-5 m 153.525,78.21514 h -75.3098 m 153.5229,78.21515 -75.3097,2e-5 m 152.1189,78.21514 -73.9038,-1e-5 M 1016.4906,38.893126 V 112.77063 M 938.2754,25.839708 v 52.137129 m -78.21514,-52.137129 -10e-6,52.137129 M 1291.5838,1094.7057 h -75.3097 m 34.8619,-34.8601 v 75.3099 m -78.2151,2.9055 v 75.3097 m -78.2152,2.9033 v 75.3097 m 40.4499,-40.4477 h -75.3099 m 153.525,-78.2151 h -75.3098 m 230.3059,-156.4303 h -73.8774 m -277.9988,277.9986 v 73.9038 M 1056.9384,77.908683 H 350.32149 M 781.8451,25.839708 V 77.976837 M 547.19962,25.839708 v 52.137129 m 78.21515,-52.137129 v 52.137129"
       style="fill:none;stroke:#000000;stroke-width:3.25896502px;stroke-miterlimit:10"
       id="path1156"
       inkscape:connector-curvature="0" />
    <path
       id="path11"
       d="m 431.18164,25.837891 a 69.516974,69.516974 0 0 0 -49.1543,20.365234 L 46.203125,382.02734 a 69.516974,69.516974 0 0 0 -20.365234,49.1543 v 544.89648 a 69.516974,69.516974 0 0 0 20.365234,49.15428 l 335.824215,335.8262 a 69.516974,69.516974 0 0 0 49.1543,20.3613 h 544.89648 a 69.516974,69.516974 0 0 0 49.15428,-20.3613 l 335.8262,-335.8262 a 69.516974,69.516974 0 0 0 20.3613,-49.15428 V 431.18164 a 69.516974,69.516974 0 0 0 -20.3613,-49.1543 L 1025.2324,46.203125 A 69.516974,69.516974 0 0 0 976.07812,25.837891 Z m 5.44922,13.55664 h 533.99805 a 68.126635,68.126635 0 0 1 48.17189,19.957031 l 329.1094,329.107418 a 68.126635,68.126635 0 0 1 19.955,48.17188 v 533.99805 a 68.126635,68.126635 0 0 1 -19.955,48.17189 l -329.1094,329.1094 a 68.126635,68.126635 0 0 1 -48.17189,19.955 H 436.63086 a 68.126635,68.126635 0 0 1 -48.17188,-19.955 L 59.351562,1018.8008 A 68.126635,68.126635 0 0 1 39.394531,970.62891 V 436.63086 A 68.126635,68.126635 0 0 1 59.351562,388.45898 L 388.45898,59.351562 a 68.126635,68.126635 0 0 1 48.17188,-19.957031 z"
       style="fill:#7c2521;stroke:#000000;stroke-width:3.13791871px;stroke-miterlimit:10"
       inkscape:connector-curvature="0" />
    <g
       id="g946">
      <g
         id="g1477">
        <circle
           style="stroke-width:1.08632159"
           transform="rotate(90)"
           cx="703.62994"
           cy="-1329.3511"
           r="5.866137"
           id="circle45" />
        <circle
           style="stroke-width:1.08632159"
           transform="rotate(90)"
           cx="1329.3512"
           cy="-703.62994"
           r="5.866137"
           id="circle43" />
        <circle
           style="stroke-width:1.08632159"
           transform="rotate(90)"
           cx="703.62994"
           cy="-77.908691"
           r="5.866137"
           id="circle47" />
        <circle
           style="stroke-width:1.08632159"
           transform="rotate(90)"
           cx="77.908691"
           cy="-703.62994"
           r="5.866137"
           id="circle41" />
      </g>
      <circle
         id="circle49"
         r="5.866137"
         cy="-703.62976"
         cx="703.62976"
         transform="rotate(90)"
         style="stroke-width:1.08632159" />
    </g>
    <g
       id="g1030">
      <ellipse
         id="circle1494"
         cy="-781.84509"
         cx="312.55417"
         transform="rotate(90)"
         style="fill:#7c2521;fill-opacity:1;stroke:#000000;stroke-width:2.54682112;stroke-opacity:1"
         rx="13.752836"
         ry="13.752834" />
      <ellipse
         style="fill:#7c2521;fill-opacity:1;stroke:#000000;stroke-width:2.54682112;stroke-opacity:1"
         transform="rotate(90)"
         cx="625.41479"
         cy="-1094.7058"
         id="circle1496"
         rx="13.752834"
         ry="13.752836" />
      <circle
         id="circle1498"
         r="13.752834"
         cy="-312.55417"
         cx="781.84509"
         transform="rotate(90)"
         style="fill:#7c2521;fill-opacity:1;stroke:#000000;stroke-width:2.54682112;stroke-opacity:1" />
      <circle
         style="fill:#7c2521;fill-opacity:1;stroke:#000000;stroke-width:2.54682112;stroke-opacity:1"
         transform="rotate(90)"
         cx="1094.7058"
         cy="-625.41479"
         r="13.752834"
         id="circle1500" />
      <circle
         id="circle1502"
         r="13.752834"
         cy="-625.41479"
         cx="781.84509"
         transform="rotate(90)"
         style="fill:#7c2521;fill-opacity:1;stroke:#000000;stroke-width:2.54682112;stroke-opacity:1" />
      <circle
         style="fill:#dedde1;fill-opacity:1;stroke:#000000;stroke-width:2.54682112;stroke-opacity:1"
         transform="rotate(90)"
         cx="781.84509"
         cy="-781.84509"
         r="13.752834"
         id="circle1504" />
      <ellipse
         id="circle1506"
         cy="-1094.7058"
         cx="781.84509"
         transform="rotate(90)"
         style="fill:#dedde1;fill-opacity:1;stroke:#000000;stroke-width:2.54682112;stroke-opacity:1"
         rx="13.752834"
         ry="13.752836" />
      <circle
         style="fill:#dedde1;fill-opacity:1;stroke:#000000;stroke-width:2.54682112;stroke-opacity:1"
         transform="rotate(90)"
         cx="1094.7058"
         cy="-781.84509"
         r="13.752834"
         id="circle1508" />
      <circle
         id="circle1510"
         r="13.752834"
         cy="-625.41479"
         cx="625.41479"
         transform="rotate(90)"
         style="fill:#dedde1;fill-opacity:1;stroke:#000000;stroke-width:2.54682112;stroke-opacity:1" />
      <ellipse
         style="fill:#dedde1;fill-opacity:1;stroke:#000000;stroke-width:2.54682112;stroke-opacity:1"
         transform="rotate(90)"
         cx="312.55417"
         cy="-625.41479"
         id="circle1512"
         rx="13.752836"
         ry="13.752834" />
      <circle
         id="circle1514"
         r="13.752834"
         cy="-312.55417"
         cx="625.41479"
         transform="rotate(90)"
         style="fill:#dedde1;fill-opacity:1;stroke:#000000;stroke-width:2.54682112;stroke-opacity:1" />
      <circle
         id="circle1516"
         r="13.752834"
         cy="-781.84509"
         cx="625.41479"
         transform="rotate(90)"
         style="fill:#7c2521;fill-opacity:1;stroke:#000000;stroke-width:2.54682112;stroke-opacity:1" />
      <circle
         style="fill:#7c2521;fill-opacity:1;stroke:#000000;stroke-width:2.54682112;stroke-opacity:1"
         transform="rotate(90)"
         cx="468.98447"
         cy="-938.27539"
         r="13.752834"
         id="circle1619" />
      <circle
         style="fill:#7c2521;fill-opacity:1;stroke:#000000;stroke-width:2.54682112;stroke-opacity:1"
         transform="rotate(90)"
         cx="938.27545"
         cy="-468.98447"
         r="13.752834"
         id="circle1621" />
      <circle
         id="circle1623"
         r="13.752834"
         cy="-938.27545"
         cx="938.27539"
         transform="rotate(90)"
         style="fill:#dedde1;fill-opacity:1;stroke:#000000;stroke-width:2.54682112;stroke-opacity:1" />
      <circle
         style="fill:#dedde1;fill-opacity:1;stroke:#000000;stroke-width:2.54682112;stroke-opacity:1"
         transform="rotate(90)"
         cx="468.98447"
         cy="-468.98447"
         r="13.752834"
         id="circle1625" />
    </g>
  </g>
</svg>
