<svg id="svg2" xmlns="http://www.w3.org/2000/svg" xmlns:xlink="http://www.w3.org/1999/xlink" viewBox="0 0 1623.25 1623.26"><defs><style>.cls-1,.cls-6{fill:none;}.cls-2{fill:#fc9;stroke-linejoin:round;stroke-width:3.01px;}.cls-2,.cls-4,.cls-5,.cls-6{stroke:#000;}.cls-3{clip-path:url(#clip-path);}.cls-4{fill:#ed1c24;}.cls-4,.cls-5,.cls-6{stroke-width:3px;}.cls-5{fill:#fff;}</style><clipPath id="clip-path" transform="translate(1.62 1.5)"><path class="cls-1" d="M810,0c447.35-.07,810.05,362.53,810.12,809.88S1257.59,1619.93,810.24,1620H810C362.65,1620.07,0,1257.47-.12,810.12S362.41.07,809.76,0Z"/></clipPath></defs><title>xiangqiboard</title><g id="layer2"><path id="path3900" class="cls-2" d="M810,0c447.35-.07,810.05,362.53,810.12,809.88S1257.59,1619.93,810.24,1620H810C362.65,1620.07,0,1257.47-.12,810.12S362.41.07,809.76,0Z" transform="translate(1.62 1.5)"/></g><g id="layer1"><g class="cls-3"><g id="g4033"><g id="g3988"><path id="path3912" class="cls-4" d="M-.06,630.16.19,990.28,179.43,810l630.29,630.3L1440,810l179.75,180.28.25-360.12L1440,809.84l-630-630L990,.19,629.91.44,810,179.83,179.43,810Zm630,989.84,360.12.25L810.22,1440.19Z" transform="translate(1.62 1.5)"/><path id="path3940" class="cls-5" d="M179.43,810h630v630l630.28-630.38h-630L810,179.83Z" transform="translate(1.62 1.5)"/></g><g id="g3856"><g id="g3795"><path id="path2989" class="cls-6" d="M0,1620H1620" transform="translate(1.62 1.5)"/><path id="path2991" class="cls-6" d="M0,1530H1620" transform="translate(1.62 1.5)"/><path id="path2993" class="cls-6" d="M0,1440H1620" transform="translate(1.62 1.5)"/><path id="path2995" class="cls-6" d="M0,1350H1620" transform="translate(1.62 1.5)"/><path id="path2997" class="cls-6" d="M0,1260H1620" transform="translate(1.62 1.5)"/><path id="path2999" class="cls-6" d="M0,1170H1620" transform="translate(1.62 1.5)"/><path id="path3001" class="cls-6" d="M0,1080H1620" transform="translate(1.62 1.5)"/><path id="path3003" class="cls-6" d="M0,990H1620" transform="translate(1.62 1.5)"/><path id="path3005" class="cls-6" d="M0,900H1620" transform="translate(1.62 1.5)"/><path id="path3007" class="cls-6" d="M0,810H1620" transform="translate(1.62 1.5)"/><path id="path3009" class="cls-6" d="M0,720H1620" transform="translate(1.62 1.5)"/><path id="path3011" class="cls-6" d="M0,630H1620" transform="translate(1.62 1.5)"/><path id="path3013" class="cls-6" d="M0,540H1620" transform="translate(1.62 1.5)"/><path id="path3015" class="cls-6" d="M0,450H1620" transform="translate(1.62 1.5)"/><path id="path3017" class="cls-6" d="M0,360H1620" transform="translate(1.62 1.5)"/><path id="path3019" class="cls-6" d="M0,270H1620" transform="translate(1.62 1.5)"/><path id="path3021" class="cls-6" d="M0,180H1620" transform="translate(1.62 1.5)"/><path id="path3023" class="cls-6" d="M0,90H1620" transform="translate(1.62 1.5)"/><path id="path3025" class="cls-6" d="M0,0H1620" transform="translate(1.62 1.5)"/></g><g id="g3816"><path id="path3818" class="cls-6" d="M1620,1620V0" transform="translate(1.62 1.5)"/><path id="path3820" class="cls-6" d="M1530,1620V0" transform="translate(1.62 1.5)"/><path id="path3822" class="cls-6" d="M1440,1620V0" transform="translate(1.62 1.5)"/><path id="path3824" class="cls-6" d="M1350,1620V0" transform="translate(1.62 1.5)"/><path id="path3826" class="cls-6" d="M1260,1620V0" transform="translate(1.62 1.5)"/><path id="path3828" class="cls-6" d="M1170,1620V0" transform="translate(1.62 1.5)"/><path id="path3830" class="cls-6" d="M1080,1620V0" transform="translate(1.62 1.5)"/><path id="path3832" class="cls-6" d="M990,1620V0" transform="translate(1.62 1.5)"/><path id="path3834" class="cls-6" d="M900,1620V0" transform="translate(1.62 1.5)"/><path id="path3836" class="cls-6" d="M810,1620V0" transform="translate(1.62 1.5)"/><path id="path3838" class="cls-6" d="M720,1620V0" transform="translate(1.62 1.5)"/><path id="path3840" class="cls-6" d="M630,1620V0" transform="translate(1.62 1.5)"/><path id="path3842" class="cls-6" d="M540,1620V0" transform="translate(1.62 1.5)"/><path id="path3844" class="cls-6" d="M450,1620V0" transform="translate(1.62 1.5)"/><path id="path3846" class="cls-6" d="M360,1620V0" transform="translate(1.62 1.5)"/><path id="path3848" class="cls-6" d="M270,1620V0" transform="translate(1.62 1.5)"/><path id="path3850" class="cls-6" d="M180,1620V0" transform="translate(1.62 1.5)"/><path id="path3852" class="cls-6" d="M90,1620V0" transform="translate(1.62 1.5)"/><path id="path3854" class="cls-6" d="M0,1620V0" transform="translate(1.62 1.5)"/></g></g></g></g></g></svg>